# xmcd
#
# Track frame offsets: 
#        150
#        15050
#        31841
#        46573
#        63201
#        76651
#        94325
#        104956
#        114896
#        134075
#        149122
#        165429
#        177165
#        192112
#        206683
#        227667
#        243006
#        259834
#        279358
#        294597
#
# Disc length: 4198 seconds
#
# Revision: 2
# Processed by: cddbd v1.5.1PL2 Copyright (c) Steve Scherf et al.
# Submitted via: ExactAudioCopy v0.90b4
#
DISCID=0b106414
DTITLE=Carlene Carter - Hindsight 20 - 20
DYEAR=1996
DGENRE=Country
TTITLE0=Sweet Meant To Be
TTITLE1=I Fell In Love
TTITLE2=Every Little Thing
TTITLE3=Unbreakable Heart
TTITLE4=Come On Back
TTITLE5=Me And The Wildwood Rose
TTITLE6=Never Together But Close Sometimes
TTITLE7=Cry
TTITLE8=The Sweetest Thing
TTITLE9=Baby Ride Easy
TTITLE10=I Love You Because I Want To
TTITLE11=I'm So Cool
TTITLE12=He Will Be Mine
TTITLE13=Hurricane
TTITLE14=Change
TTITLE15=Trust Yourself
TTITLE16=One Tender Night
TTITLE17=It's No Wonder (Why I Love Him)
TTITLE18=Love Like This
TTITLE19=Easy From Now On
EXTD=
EXTT0=
EXTT1=
EXTT2=
EXTT3=
EXTT4=
EXTT5=
EXTT6=
EXTT7=
EXTT8=
EXTT9=
EXTT10=
EXTT11=
EXTT12=
EXTT13=
EXTT14=
EXTT15=
EXTT16=
EXTT17=
EXTT18=
EXTT19=
PLAYORDER=
